<svg data-name="controlpk__logo" xmlns="http://www.w3.org/2000/svg" viewBox="0 0 200 55"><path class="ontrol" d="M15.46 32.16A12.57 12.57 0 0 1 28.17 19.5a12.66 12.66 0 1 1 0 25.32 12.57 12.57 0 0 1-12.71-12.66zm18.23 0a5.38 5.38 0 0 0-5.52-5.66 5.38 5.38 0 0 0-5.51 5.66 5.52 5.52 0 1 0 11 0zm32.37-3.22V43a1.09 1.09 0 0 1-1.2 1.2h-4.8a1.09 1.09 0 0 1-1.19-1.2V29.57c0-2.4-1.39-3.46-3.22-3.46-2.16 0-3.5 1.2-3.5 4V43a1.09 1.09 0 0 1-1.2 1.2h-4.79A1.09 1.09 0 0 1 45 43V21.37a1.09 1.09 0 0 1 1.2-1.2H51a1.09 1.09 0 0 1 1.2 1.2v1c1.13-1.67 3.17-2.86 6.24-2.86 4.41-.01 7.62 3.49 7.62 9.43zm17.6-7.57v4.5a1.09 1.09 0 0 1-1.2 1.2h-2.64V43a1.09 1.09 0 0 1-1.2 1.2h-4.79a1.09 1.09 0 0 1-1.2-1.2V27.07H70a1.09 1.09 0 0 1-1.2-1.2v-4.5a1.09 1.09 0 0 1 1.2-1.2h2.64v-6.48a1.09 1.09 0 0 1 1.2-1.2h4.79a1.09 1.09 0 0 1 1.2 1.2v6.48h2.64a1.09 1.09 0 0 1 1.19 1.2zm15.54-1.59c.81-.14 1.24.39 1.24 1.15v5.66c0 .77-.33 1.15-1 1.15-2.68-.09-5.27 1.25-5.27 5.09V43a1.09 1.09 0 0 1-1.2 1.2h-4.8A1.09 1.09 0 0 1 87 43V21.37a1.08 1.08 0 0 1 1.19-1.2H93a1.09 1.09 0 0 1 1.2 1.2V24a5.83 5.83 0 0 1 5-4.18zm2.68 12.38a12.71 12.71 0 1 1 12.71 12.66 12.57 12.57 0 0 1-12.71-12.66zm18.23 0a5.52 5.52 0 1 0-11 0 5.52 5.52 0 1 0 11 0zM131.38 43V10.82a1.08 1.08 0 0 1 1.19-1.2h4.8a1.09 1.09 0 0 1 1.2 1.2V43a1.09 1.09 0 0 1-1.2 1.2h-4.8a1.09 1.09 0 0 1-1.19-1.2z"/><path class="ok" d="M169 22.09a11.54 11.54 0 0 1-11.73 11.51h-5V43a1.09 1.09 0 0 1-1.2 1.2h-5.28a1.09 1.09 0 0 1-1.2-1.2V11.77a1.08 1.08 0 0 1 1.2-1.19h11.51A11.53 11.53 0 0 1 169 22.09zm-7.67 0a4.11 4.11 0 0 0-4.08-4.32h-5v8.63h5a4.1 4.1 0 0 0 4.1-4.31z"/><path class="pk" d="M198.23 44.15h-6a1.6 1.6 0 0 1-1.44-.77l-10.26-14.77V43a1.09 1.09 0 0 1-1.2 1.2h-5.28a1.09 1.09 0 0 1-1.19-1.2V11.77a1.08 1.08 0 0 1 1.19-1.19h5.28a1.08 1.08 0 0 1 1.2 1.19v13.41l9.73-13.84a1.66 1.66 0 0 1 1.44-.76h6.05c1 0 1.34.62.76 1.43l-10.32 14.9L199 42.71c.52.81.19 1.44-.77 1.44z"/><path class="iso" d="M26.48 54.4h.11a.22.22 0 0 0 .11 0 26.8 26.8 0 0 0 18.6-7.57l5.45 5.56a1 1 0 0 0 1 .19.92.92 0 0 0 .57-.85v-18a.92.92 0 0 0-.91-.92H33.58a.92.92 0 0 0-.45 1.71L38.52 40a16.9 16.9 0 0 1-11.94 4.78 17.06 17.06 0 1 1 .26-34.12V1.03h-.14a26.69 26.69 0 0 0-.2 53.38zm0 0"/></svg>